<?xml version="1.0" encoding="UTF-8"?>
<svg width="841px" height="164px" viewBox="0 0 841 164" version="1.1" xmlns="http://www.w3.org/2000/svg" xmlns:xlink="http://www.w3.org/1999/xlink">
    <!-- Generator: Sketch 48.1 (47250) - http://www.bohemiancoding.com/sketch -->
    <title>Final logo Copy</title>
    <desc>Created with Sketch.</desc>
    <defs></defs>
    <g id="Page-1" stroke="none" stroke-width="1" fill="none" fill-rule="evenodd">
        <g id="Final-logo-Copy" fill="#0065B3">
            <path d="M0.28,3 L30.42,3 L30.42,157 L0.28,157 L0.28,3 Z M126.56,157 L126.56,94.52 C126.56,85.5732886 125.276679,79.1200198 122.71,75.16 C120.14332,71.1999802 115.780031,69.22 109.62,69.22 C104.193306,69.22 99.6100187,70.7966509 95.87,73.95 C92.1299813,77.1033491 89.4533414,81.0266432 87.84,85.72 L87.84,157 L59.24,157 L59.24,47 L81.9,47 L85.2,61.52 L86.08,61.52 C89.4533502,56.8266432 93.9266388,52.7200176 99.5,49.2 C105.073361,45.6799824 112.259956,43.92 121.06,43.92 C126.486694,43.92 131.326645,44.653326 135.58,46.12 C139.833355,47.586674 143.426652,50.0066498 146.36,53.38 C149.293348,56.7533502 151.493326,61.3366377 152.96,67.13 C154.426674,72.9233623 155.16,80.0732908 155.16,88.58 L155.16,157 L126.56,157 Z M224.68,126.64 C224.68,123.706652 223.433346,121.360009 220.94,119.6 C218.446654,117.839991 215.366685,116.226674 211.7,114.76 C208.033315,113.293326 204.000022,111.790008 199.6,110.25 C195.199978,108.709992 191.166685,106.583347 187.5,103.87 C183.833315,101.156653 180.753346,97.7100209 178.26,93.53 C175.766654,89.3499791 174.52,83.960033 174.52,77.36 C174.52,66.5066124 177.746634,58.2200286 184.2,52.5 C190.653366,46.7799714 199.966606,43.92 212.14,43.92 C220.500042,43.92 228.0533,44.7999912 234.8,46.56 C241.5467,48.3200088 246.826648,50.299989 250.64,52.5 L244.26,73.18 C240.88665,71.8599934 236.633359,70.466674 231.5,69 C226.366641,67.533326 221.160026,66.8 215.88,66.8 C207.373291,66.8 203.12,70.099967 203.12,76.7 C203.12,79.3400132 204.366654,81.4666586 206.86,83.08 C209.353346,84.6933414 212.433315,86.1966597 216.1,87.59 C219.766685,88.9833403 223.799978,90.4866586 228.2,92.1 C232.600022,93.7133414 236.633315,95.8033205 240.3,98.37 C243.966685,100.93668 247.046654,104.273313 249.54,108.38 C252.033346,112.486687 253.28,117.766634 253.28,124.22 C253.28,135.366722 249.723369,144.129968 242.61,150.51 C235.496631,156.890032 224.826738,160.08 210.6,160.08 C202.826628,160.08 195.530034,159.09001 188.71,157.11 C181.889966,155.12999 176.353355,152.820013 172.1,150.18 L180.02,128.84 C183.39335,130.746676 187.866639,132.616658 193.44,134.45 C199.013361,136.283343 204.733304,137.2 210.6,137.2 C214.853355,137.2 218.26332,136.393341 220.83,134.78 C223.396679,133.166659 224.68,130.453352 224.68,126.64 Z M299.48,47 L299.48,109.48 C299.48,118.426711 300.543323,124.87998 302.67,128.84 C304.796677,132.80002 308.939969,134.78 315.1,134.78 C320.526694,134.78 325.036649,133.166683 328.63,129.94 C332.223351,126.713317 334.899991,122.753357 336.66,118.06 L336.66,47 L365.26,47 L365.26,123.56 C365.26,129.573363 365.55333,135.476638 366.14,141.27 C366.72667,147.063362 367.606661,152.306643 368.78,157 L347.22,157 L342.16,140.72 L341.28,140.72 C337.90665,146.293361 333.213363,150.913315 327.2,154.58 C321.186637,158.246685 314.073374,160.08 305.86,160.08 C300.286639,160.08 295.300022,159.346674 290.9,157.88 C286.499978,156.413326 282.833348,153.99335 279.9,150.62 C276.966652,147.24665 274.730008,142.700029 273.19,136.98 C271.649992,131.259971 270.88,124.073377 270.88,115.42 L270.88,47 L299.48,47 Z M451.06,73.84 C446.513311,72.2266586 442.406685,71.42 438.74,71.42 C433.606641,71.42 429.316684,72.7766531 425.87,75.49 C422.423316,78.2033469 420.113339,81.6866454 418.94,85.94 L418.94,157 L390.34,157 L390.34,47 L412.56,47 L415.86,61.52 L416.74,61.52 C419.233346,56.0933062 422.606645,51.913348 426.86,48.98 C431.113355,46.046652 436.099971,44.58 441.82,44.58 C445.633352,44.58 449.959976,45.3866586 454.8,47 L451.06,73.84 Z M468.22,4.54 C474.380031,3.3666608 481.163296,2.4500033 488.57,1.79 C495.976704,1.1299967 503.34663,0.8 510.68,0.8 C518.306705,0.8 525.969962,1.4233271 533.67,2.67 C541.370039,3.9166729 548.299969,6.4099813 554.46,10.15 C560.620031,13.8900187 565.643314,19.0966333 569.53,25.77 C573.416686,32.4433667 575.36,41.1332798 575.36,51.84 C575.36,61.5200484 573.67335,69.6966333 570.3,76.37 C566.92665,83.0433667 562.453361,88.5066454 556.88,92.76 C551.306639,97.0133546 544.963369,100.093324 537.85,102 C530.736631,103.906676 523.366705,104.86 515.74,104.86 L512.22,104.86 C510.606659,104.86 508.920009,104.823334 507.16,104.75 C505.399991,104.676666 503.676675,104.566667 501.99,104.42 C500.303325,104.273333 499.093337,104.126667 498.36,103.98 L498.36,157 L468.22,157 L468.22,4.54 Z M513.1,26.76 C510.166652,26.76 507.380013,26.8699989 504.74,27.09 C502.099987,27.3100011 499.973341,27.5666652 498.36,27.86 L498.36,77.8 C498.94667,77.9466674 499.826661,78.0933326 501,78.24 C502.173339,78.3866674 503.419993,78.4966663 504.74,78.57 C506.060007,78.6433337 507.343327,78.68 508.59,78.68 L511.34,78.68 C515.30002,78.68 519.223314,78.313337 523.11,77.58 C526.996686,76.846663 530.479985,75.4900099 533.56,73.51 C536.640015,71.5299901 539.096658,68.7800176 540.93,65.26 C542.763343,61.7399824 543.68,57.1200286 543.68,51.4 C543.68,46.5599758 542.800009,42.5633491 541.04,39.41 C539.279991,36.2566509 536.970014,33.7266762 534.11,31.82 C531.249986,29.9133238 527.986685,28.593337 524.32,27.86 C520.653315,27.126663 516.913352,26.76 513.1,26.76 Z" id="InsurP"></path>
            <path d="M818.02,120.04 C818.02,125.173359 818.679993,128.913322 820,131.26 C821.320007,133.606678 823.446652,134.78 826.38,134.78 C828.140009,134.78 829.863325,134.633335 831.55,134.34 C833.236675,134.046665 835.326654,133.386672 837.82,132.36 L840.9,154.8 C838.553322,155.973339 834.960024,157.146661 830.12,158.32 C825.279976,159.493339 820.293359,160.08 815.16,160.08 C806.799958,160.08 800.420022,158.136686 796.02,154.25 C791.619978,150.363314 789.42,143.946711 789.42,135 L789.42,3 L818.02,3 L818.02,120.04 Z" id="l"></path>
            <ellipse id="Oval" cx="717.489735" cy="106.799358" rx="57.0042553" ry="57.0629371"></ellipse>
            <ellipse id="Oval-Copy" cx="635.126924" cy="106.916658" rx="57.0042553" ry="57.0629371"></ellipse>
            <path d="M663.020055,81.0803622 C656.410522,73.3829673 646.597455,69.2315952 633.580852,68.6262458 C614.055949,67.7182217 597.992702,83.5117702 597.182155,106.576191 C596.371608,129.640611 617.785785,144.865788 639.037488,144.28423 C653.20529,143.896524 672.747077,132.129239 697.66285,108.982374" id="Path-3" stroke="#FFFFFF" stroke-width="9.072"></path>
            <path d="M722.24687,78.8437358 C716.670489,72.8653702 707.373998,69.5735127 694.357396,68.9681633 C674.832492,68.0601392 656.897397,84.9329585 656.08685,107.997379 C655.276303,131.0618 676.971083,145.857594 698.222786,145.276036 C712.390588,144.88833 732.449642,132.162316 758.399946,107.097992" id="Path-3-Copy-3" stroke="#FFFFFF" stroke-width="9.072" transform="translate(707.232383, 107.112885) scale(-1, -1) translate(-707.232383, -107.112885) "></path>
        </g>
    </g>
</svg>