<?xml version="1.0" standalone="no"?>
<!DOCTYPE svg PUBLIC "-//W3C//DTD SVG 1.1//EN" "http://www.w3.org/Graphics/SVG/1.1/DTD/svg11.dtd" >
<svg>
<metadata>
Created by FontForge 20090622 at Fri May 26 07:08:30 2017
 By deploy user
&#194;&#169; copyright by Fontbit
</metadata>
<defs>
<font id="FbReformaNarrowBold" horiz-adv-x="756" >
  <font-face 
    font-family="FbReformaNarrow"
    font-weight="700"
    font-stretch="normal"
    units-per-em="2048"
    panose-1="2 2 8 3 5 4 5 2 3 4"
    ascent="1638"
    descent="-410"
    bbox="-309 -694 1590 1391"
    underline-thickness="50"
    underline-position="-175"
    unicode-range="U+0020-U+FB4B"
  />
<missing-glyph horiz-adv-x="1593" 
d="M1308 0h-1024v1280h1024v-1280zM316 1248v-1216h960v1216h-960z" />
    <glyph glyph-name=".notdef" horiz-adv-x="1593" 
d="M1308 0h-1024v1280h1024v-1280zM316 1248v-1216h960v1216h-960z" />
    <glyph glyph-name=".null" horiz-adv-x="0" 
 />
    <glyph glyph-name="nonmarkingreturn" horiz-adv-x="682" 
 />
    <glyph glyph-name="space" unicode=" " horiz-adv-x="307" 
 />
    <glyph glyph-name="exclam" unicode="!" horiz-adv-x="584" 
d="M420 1108l-102 -717h-164l-101 717q-6 42 19 70q38 45 169 45q133 0 167 -52q16 -27 12 -63zM360 268v-268h-247v268h247z" />
    <glyph glyph-name="quotedbl" unicode="&#x22;" horiz-adv-x="667" 
d="M410 1247h224l-136 -469h-172zM116 1247h225l-138 -469h-170z" />
    <glyph glyph-name="numbersign" unicode="#" horiz-adv-x="890" 
d="M703 846h129l-24 -172h-128l-27 -181h131l-18 -163h-131l-31 -191h-153l29 191h-158l-29 -191h-145l29 191h-120l18 163h123l26 181h-125l24 172h123l29 201h142l-27 -201h158l31 201h151zM502 493l26 181h-158l-26 -181h158z" />
    <glyph glyph-name="dollar" unicode="$" horiz-adv-x="856" 
d="M744 302q0 -122 -71 -202q-77 -86 -214 -94v-111h-90v114q-45 0 -105 22q-85 30 -132 83v283q51 -61 117 -100q68 -41 120 -41v192q-128 49 -187 111q-69 73 -69 195q0 110 64 186q71 86 192 90v116h90v-116q108 0 206 -86v-264q-31 40 -98 71q-67 32 -108 32v-150
q285 -89 285 -331zM369 661v128q-28 0 -46 -19t-18 -42q0 -45 64 -67zM521 334q0 73 -62 88v-166q20 0 41 25t21 53z" />
    <glyph glyph-name="percent" unicode="%" horiz-adv-x="1081" 
d="M1012 283q0 -310 -202 -310q-201 0 -201 310q0 309 201 309q202 0 202 -309zM673 1047h193l-463 -1047h-194zM473 764q0 -309 -202 -309q-201 0 -201 309t201 309q202 0 202 -309zM853 285q0 161 -43 161q-42 0 -42 -161q0 -160 42 -160q43 0 43 160zM314 766
q0 162 -43 162q-42 0 -42 -162q0 -160 42 -160q43 0 43 160z" />
    <glyph glyph-name="ampersand" unicode="&#x26;" horiz-adv-x="1521" 
d="M1393 180l26 -22q-20 -85 -108 -149q-86 -64 -174 -64q-137 0 -312 172q-181 -172 -405 -172q-142 0 -227 75q-91 79 -91 218q0 150 119 269q76 75 248 173q-68 141 -68 256q0 131 76 216q79 91 207 91q110 0 179 -57q75 -62 75 -170q0 -195 -287 -324q122 -224 244 -385
q172 212 172 338q0 81 -121 88v39h400v-39q-60 -7 -91 -22q-50 -24 -84 -88q-123 -229 -233 -369q148 -174 285 -174q57 0 97 28q26 17 73 72zM840 1022q0 70 -40.5 115t-107.5 45q-143 0 -143 -164q0 -106 74 -266q217 126 217 270zM776 168q-128 167 -280 446
q-220 -130 -220 -311q0 -107 66 -181q68 -77 174 -77q132 0 260 123z" />
    <glyph glyph-name="quotesingle" unicode="'" horiz-adv-x="406" 
d="M149 1247h225l-135 -469h-190z" />
    <glyph glyph-name="parenleft" unicode="(" horiz-adv-x="598" 
d="M587 -295h-258q-93 93 -176 321q-92 255 -92 490q0 256 91 510q79 224 177 322h258q-104 -137 -180 -379q-77 -249 -77 -453q0 -202 78 -450q80 -248 179 -361z" />
    <glyph glyph-name="parenright" unicode=")" horiz-adv-x="598" 
d="M536 516q0 -230 -92 -488q-82 -230 -176 -323h-258q99 113 179 361q79 246 79 450q0 206 -78 453q-76 242 -180 379h258q99 -99 178 -322q90 -255 90 -510z" />
    <glyph glyph-name="asterisk" unicode="*" horiz-adv-x="805" 
d="M721 865l-66 -132l-192 121l20 -231h-159l25 226l-195 -127l-70 130l216 105l-216 96l66 131l199 -121l-25 223h159l-20 -224l186 122l70 -130l-205 -96z" />
    <glyph glyph-name="plus" unicode="+" horiz-adv-x="690" 
d="M632 614v-184h-197v-205h-180v205h-198v184h198v207h180v-207h197z" />
    <glyph glyph-name="comma" unicode="," horiz-adv-x="374" 
d="M116 268h225l-151 -469h-190z" />
    <glyph glyph-name="hyphen" unicode="-" horiz-adv-x="690" 
d="M575 614v-184h-460v184h460z" />
    <glyph glyph-name="period" unicode="." horiz-adv-x="346" 
d="M280 268v-268h-231v268h231z" />
    <glyph glyph-name="slash" unicode="/" horiz-adv-x="518" 
d="M324 1283h176l-306 -1456h-176z" />
    <glyph glyph-name="zero" unicode="0" horiz-adv-x="799" 
d="M731 524q0 -291 -86 -422q-80 -122 -248 -122t-246 121q-83 130 -83 423q0 303 77 428q75 121 254 121q175 0 252 -120q80 -128 80 -429zM479 524q0 118 -5 166q-16 123 -75 123q-80 0 -80 -289q0 -284 78 -284q82 0 82 284z" />
    <glyph glyph-name="one" unicode="1" horiz-adv-x="799" 
d="M637 1047v-1047h-262v696q-94 -239 -250 -325v301q164 100 301 375h211z" />
    <glyph glyph-name="two" unicode="2" horiz-adv-x="799" 
d="M715 721q0 -130 -144 -322l-98 -131h221v-268h-631v55l314 475q57 87 57 146q0 112 -110 112q-118 0 -232 -163v305q87 143 273 143q350 0 350 -352z" />
    <glyph glyph-name="three" unicode="3" horiz-adv-x="799" 
d="M514 532q84 -21 143 -75q76 -70 76 -174q0 -142 -100 -227q-98 -85 -258 -85q-200 0 -289 82v275q20 -32 71 -58q62 -32 134 -32q145 0 145 92t-123 92h-65v219h65q47 0 77 23.5t30 54.5q0 88 -113 88q-132 0 -198 -72v275q80 63 266 63q325 0 325 -291q0 -176 -186 -250
z" />
    <glyph glyph-name="four" unicode="4" horiz-adv-x="799" 
d="M750 524v-256h-103v-268h-262v268h-336v221l375 558h223v-523h103zM242 524h159v242z" />
    <glyph glyph-name="five" unicode="5" horiz-adv-x="799" 
d="M293 494q-88 0 -178 -39l75 592h496v-269h-283l-14 -107q8 1 14.5 1.5t11 1.5t8 1.5t4.5 0.5h1q313 0 313 -344q0 -162 -103 -262q-104 -99 -265 -99q-186 0 -275 72v274q52 -79 195 -79q77 0 124 38q42 34 42 84q0 134 -166 134z" />
    <glyph glyph-name="six" unicode="6" horiz-adv-x="799" 
d="M725 346q0 -159 -71 -257q-82 -114 -240 -114q-196 0 -276 114q-64 92 -64 288q0 153 83 351q86 204 212 319h297q-135 -117 -265 -383q22 14 48 14q126 0 200 -83q76 -86 76 -249zM469 348q0 56 -10 76q-15 33 -62 33q-49 0 -65 -33q-10 -20 -10 -76q0 -104 75 -104
q72 0 72 104z" />
    <glyph glyph-name="seven" unicode="7" horiz-adv-x="799" 
d="M727 1047v-213l-301 -834h-279l297 778h-372v269h655z" />
    <glyph glyph-name="eight" unicode="8" horiz-adv-x="799" 
d="M729 285q0 -171 -83 -245q-78 -69 -247 -69q-173 0 -249 68q-80 72 -80 246q0 102 52 170q48 63 122 77q-154 30 -154 248q0 285 309 285q310 0 310 -285q0 -210 -156 -248q76 -13 123 -74q53 -68 53 -173zM471 727q0 46 -11 63q-17 23 -61 23q-73 0 -73 -86
q0 -47 11 -67q15 -25 62 -25q46 0 61 26q11 20 11 66zM483 348q0 105 -84 105q-54 0 -71 -29q-13 -19 -13 -76q0 -53 14 -75q18 -29 70 -29q84 0 84 104z" />
    <glyph glyph-name="nine" unicode="9" horiz-adv-x="799" 
d="M74 700q0 371 327 371q324 0 324 -401q0 -151 -88 -351t-207 -319h-297q165 146 277 375q-32 -15 -60 -15q-276 0 -276 340zM336 684q0 -109 65 -109q70 0 70 109q0 119 -70 119q-41 0 -54 -30q-11 -25 -11 -89z" />
    <glyph glyph-name="colon" unicode=":" horiz-adv-x="411" 
d="M313 874v-268h-231v268h231zM313 268v-268h-231v268h231z" />
    <glyph glyph-name="semicolon" unicode=";" horiz-adv-x="442" 
d="M346 874v-268h-231v268h231zM116 268h225l-118 -469h-190z" />
    <glyph glyph-name="less" unicode="&#x3c;" horiz-adv-x="690" 
d="M616 332v-238l-542 312v229l542 305v-233l-350 -189z" />
    <glyph glyph-name="equal" unicode="=" horiz-adv-x="690" 
d="M616 846v-205h-542v205h542zM616 401v-204h-542v204h542z" />
    <glyph glyph-name="greater" unicode="&#x3e;" horiz-adv-x="690" 
d="M616 635v-229l-542 -312v238l350 186l-350 189v233z" />
    <glyph glyph-name="question" unicode="?" horiz-adv-x="807" 
d="M559 612q-104 -109 -104 -221h-249q-1 6 -1 101q0 109 128 231q65 62 65 119q0 84 -110 84q-113 0 -214 -131v305q79 102 275 102q141 0 230 -80q94 -87 94 -239q0 -151 -114 -271zM455 268v-268h-247v268h247z" />
    <glyph glyph-name="at" unicode="@" horiz-adv-x="1629" 
d="M1538 141h52q-101 -249 -294 -382q-197 -137 -461 -137q-329 0 -543 211q-213 211 -213 540q0 224 103 411q108 194 300 298q193 104 424 104q394 0 543 -288q71 -137 71 -289q0 -161 -67 -304q-71 -156 -200 -235q-113 -70 -246 -70q-173 0 -173 150q0 45 20 120
q-70 -116 -110 -163q-95 -107 -185 -107q-74 0 -111 61q-32 52 -32 129q0 288 214 505q60 62 141 106q40 22 87 22q101 0 121 -134l29 102l209 8l-157 -537q-26 -92 -26 -133q0 -28 20 -47.5t49 -19.5q85 0 182 93q82 79 125 169q61 125 61 269q0 241 -153 389
q-153 150 -394 150q-214 0 -384 -100q-171 -99 -272 -287q-100 -187 -100 -402q0 -296 187 -484q187 -189 482 -189q235 0 426 125q194 128 275 346zM940 649q0 113 -61 113q-71 0 -156 -199q-87 -204 -87 -328q0 -79 51 -79q54 0 140 137q113 182 113 356z" />
    <glyph glyph-name="bracketleft" unicode="[" horiz-adv-x="652" 
d="M591 -109v-182h-407v1639h407v-183h-214v-1274h214z" />
    <glyph glyph-name="backslash" unicode="\" horiz-adv-x="565" 
d="M184 1196l372 -1200h-176l-380 1198z" />
    <glyph glyph-name="bracketright" unicode="]" horiz-adv-x="652" 
d="M468 1348v-1639h-407v182h214v1274h-214v183h407z" />
    <glyph glyph-name="asciicircum" unicode="^" horiz-adv-x="960" 
d="M525 1225l367 -758h-137l-275 582l-278 -582h-137l366 758q17 35 47 35t47 -35z" />
    <glyph glyph-name="underscore" unicode="_" horiz-adv-x="1024" 
d="M1024 -139v-90h-1024v90h1024z" />
    <glyph glyph-name="braceleft" unicode="{" horiz-adv-x="723" 
d="M662 -150v-184h-232q-160 0 -251 106q-79 91 -79 223q0 76 28 136l72 154q21 45 21 84q0 91 -129 159q129 68 129 160q0 39 -21 84l-72 154q-28 60 -28 135q0 133 79 224q91 106 251 106h232v-185h-138q-73 0 -121 -50t-48 -120q0 -36 13 -69l67 -176q13 -35 13 -73
q0 -65 -38 -120q-37 -53 -90 -70q50 -15 88 -74t38 -124q0 -33 -11 -64l-67 -176q-13 -33 -13 -69q0 -71 48 -121t121 -50h138z" />
    <glyph glyph-name="bar" unicode="|" horiz-adv-x="442" 
d="M319 1350v-1641h-197v1641h197z" />
    <glyph glyph-name="braceright" unicode="}" horiz-adv-x="723" 
d="M631 528q-129 -68 -129 -159q0 -40 22 -84l71 -154q29 -63 29 -136q0 -131 -80 -223q-91 -106 -251 -106h-232v184h138q73 0 121 50t48 121q0 36 -13 69l-67 176q-11 31 -11 64q0 66 37 124q38 59 89 74q-53 17 -90 70q-38 55 -38 120q0 38 13 73l67 176q13 33 13 69
q0 70 -48 120t-121 50h-138v185h232q160 0 251 -106q80 -92 80 -224q0 -72 -29 -135l-71 -154q-22 -44 -22 -84q0 -92 129 -160z" />
    <glyph glyph-name="asciitilde" unicode="~" horiz-adv-x="1107" 
d="M1076 641q-40 -172 -119 -246q-70 -65 -161 -65q-88 0 -279 75q-189 76 -250 76q-127 0 -192 -186q-13 -37 -33 -37t-14 37q13 98 73 190q74 113 197 113q83 0 272 -73q191 -72 260 -72q74 0 125 61q38 44 70 127q17 41 37 41q16 0 16 -27q0 -4 -2 -14z" />
    <glyph glyph-name="cent" unicode="&#xa2;" horiz-adv-x="874" 
d="M742 309l27 -10q-79 -319 -330 -319q-67 0 -137 30l-121 -334h-61l133 365q-143 135 -143 346q0 216 133 334q103 88 233 88q7 0 53 -2l119 328h62l-123 -344q157 -72 157 -175q0 -71 -79 -71q-49 0 -74 33q-12 17 -21 59q-10 55 -16 65l-195 -538q79 -53 140 -53
q110 0 174 73q25 33 69 125zM314 213l193 526q-27 11 -51 11q-109 0 -164 -97q-45 -79 -45 -196t67 -244z" />
    <glyph glyph-name="sterling" unicode="&#xa3;" horiz-adv-x="874" 
d="M805 266l31 -8q-15 -113 -72 -188q-68 -90 -174 -90q-72 0 -150 45q-26 16 -129 92q-68 -137 -159 -137q-45 0 -73 31t-28 79q0 60 39.5 96.5t102.5 36.5q27 0 71 -6l4 37v29q0 74 -18 280h-166v82h166q-12 127 -12 170q0 225 159 324q72 45 158 45q82 0 145 -45
q72 -49 72 -129q0 -27 -20.5 -49.5t-46.5 -22.5q-33 0 -54 33q-9 12 -14 69q-7 97 -102 97q-156 0 -156 -240q0 -61 10 -160l8 -92h221v-82h-221q2 -52 2 -57q0 -148 -53 -307q162 -54 191 -60q43 -10 88 -10q141 0 180 137zM254 147q-38 23 -72 23q-82 0 -82 -74
q0 -67 56 -67q70 0 98 118z" />
    <glyph glyph-name="section" unicode="&#xa7;" horiz-adv-x="874" 
d="M741 412q0 -179 -188 -293q104 -116 104 -217q0 -102 -69 -173q-68 -71 -172 -71q-83 0 -150 56q-65 56 -65 136q0 30 20 53t47 23q64 0 64 -76q0 -14 -8 -46q-7 -29 -7 -46q0 -32 37 -51q31 -16 66 -16q58 0 104 43q47 44 47 98q0 109 -176 240q-121 92 -174 153
q-88 100 -88 205q0 176 189 291q-105 117 -105 221q0 102 69 172q70 70 173 70q87 0 151 -54q66 -52 66 -135q0 -77 -68 -77q-67 0 -67 67q0 11 6 40t6 42q0 80 -94 80q-62 0 -105 -43t-43 -107q0 -55 23 -90q38 -60 129 -125q125 -92 184 -157q94 -104 94 -213zM655 332
q0 120 -192 268q-79 61 -113 94q-129 -78 -129 -190q0 -80 66 -158q37 -41 133 -115q52 -39 104 -86q131 78 131 187z" />
    <glyph glyph-name="copyright" unicode="&#xa9;" horiz-adv-x="1335" 
d="M1274 580q0 -163 -82 -306q-83 -143 -226 -222q-142 -79 -298 -79q-163 0 -306 82q-143 83 -222 224q-79 142 -79 301q0 163 84 307q84 146 226 222q143 77 297 77q161 0 304 -81q144 -81 222 -220q80 -146 80 -305zM1223 580q0 150 -76 280q-77 132 -208 203
q-132 72 -271 72q-148 0 -278 -75t-202 -202q-73 -133 -73 -278q0 -148 74 -279q76 -132 205 -203q131 -71 274 -71q148 0 279 74q129 74 203 205q73 130 73 274zM969 385l30 -16q-119 -174 -327 -174q-165 0 -281 107q-115 108 -115 273q0 175 127 287q121 109 299 109
q60 0 158 -33q21 -6 31 -6q27 0 43 37h35l16 -238h-33q-62 201 -260 201q-138 0 -215 -107q-59 -85 -59 -225q0 -354 282 -354q169 0 269 139z" />
    <glyph glyph-name="guillemotleft" unicode="&#xab;" horiz-adv-x="1024" 
d="M717 465l244 -473h-60l-393 473l393 469h60zM264 465l244 -473h-57l-388 473l388 469h57z" />
    <glyph glyph-name="paragraph" unicode="&#xb6;" horiz-adv-x="792" 
d="M797 1159v-47h-115v-1491h-61v1491h-160v-1491h-62v893q-137 6 -209 31q-108 34 -159 125q-43 74 -43 170q0 189 170 278q84 41 215 41h424z" />
    <glyph glyph-name="middot" unicode="&#xb7;" horiz-adv-x="512" 
d="M367 678q0 -47 -32 -79t-79 -32q-45 0 -78 33t-33 78q0 47 32 78.5t79 31.5t79 -31.5t32 -78.5z" />
    <glyph glyph-name="guillemotright" unicode="&#xbb;" horiz-adv-x="1024" 
d="M573 934l388 -471l-388 -471h-57l244 471l-244 471h57zM123 934l393 -471l-393 -471h-60l244 471l-244 471h60z" />
    <glyph glyph-name="onequarter" unicode="&#xbc;" horiz-adv-x="1312" 
d="M1283 193v-70h-92v-158h-100v158h-293v61l319 398h74v-389h92zM1027 1184h76l-799 -1231h-76zM405 596v-29h-277v29q74 0 82 18q4 9 4 64v319q0 87 -12 101q-5 4 -17 4q-17 0 -57 -17l-14 23l176 76h28v-506q0 -51 7 -64q10 -18 80 -18zM867 193h224v268z" />
    <glyph glyph-name="onehalf" unicode="&#xbd;" horiz-adv-x="1312" 
d="M1238 96h39l-53 -131h-422v27q323 251 323 389q0 54 -35.5 88.5t-89.5 34.5q-103 0 -141 -101h-39q27 179 207 179q78 0 137 -41q68 -45 68 -119q0 -134 -293 -373h160q110 0 139 47zM1007 1184h75l-798 -1231h-76zM405 596v-29h-277v29q74 0 82 18q4 9 4 64v319
q0 87 -12 101q-5 4 -17 4q-17 0 -57 -17l-14 23l176 76h28v-506q0 -51 7 -64q10 -18 80 -18z" />
    <glyph glyph-name="threequarters" unicode="&#xbe;" horiz-adv-x="1312" 
d="M1283 193v-70h-92v-158h-100v158h-293v61l319 398h74v-389h92zM1017 1184h74l-797 -1231h-76zM445 770q0 -107 -92 -166q-79 -49 -192 -49q-125 0 -125 53q0 39 49 39q23 0 71 -21q49 -20 76 -20q48 0 82 33q35 33 35 80q0 145 -198 141v25q59 0 107 36q48 37 48 97
q0 94 -104 94q-73 0 -125 -76l-33 15q66 133 197 133q63 0 112 -31q58 -37 58 -96q0 -57 -90 -131q124 -45 124 -156zM869 193h222v268z" />
    <glyph glyph-name="multiply" unicode="&#xd7;" horiz-adv-x="987" 
d="M541 584l303 -303l-49 -50l-303 304l-302 -304l-49 50l301 301l-301 301l52 49l299 -299l301 299l49 -47z" />
    <glyph glyph-name="divide" unicode="&#xf7;" horiz-adv-x="1124" 
d="M648 987q0 -35 -25.5 -60.5t-62.5 -25.5q-35 0 -61.5 25.5t-26.5 60.5q0 37 25.5 62.5t62.5 25.5q39 0 63.5 -24.5t24.5 -63.5zM1101 723v-82h-1079v82h1079zM648 367q0 -37 -25.5 -62.5t-62.5 -25.5q-36 0 -62 26t-26 62t26.5 62t61.5 26q38 0 63 -25.5t25 -62.5z" />
    <glyph glyph-name="etnahta" unicode="&#x591;" 
d="M657 770q0 -119 -83 -202t-203 -83q-118 0 -200 84q-83 85 -83 201q0 118 83 203q82 84 200 84q121 0 203 -84q83 -85 83 -203zM578 770q0 88 -60 148q-58 61 -147 61q-86 0 -146 -61q-59 -61 -59 -148q0 -84 59 -146q60 -61 146 -61q89 0 147 61q60 62 60 146z" />
    <glyph glyph-name="segolta" unicode="&#x592;" 
d="M657 770q0 -119 -83 -202t-203 -83q-118 0 -200 84q-83 85 -83 201q0 118 83 203q82 84 200 84q121 0 203 -84q83 -85 83 -203zM578 770q0 88 -60 148q-58 61 -147 61q-86 0 -146 -61q-59 -61 -59 -148q0 -84 59 -146q60 -61 146 -61q89 0 147 61q60 62 60 146z" />
    <glyph glyph-name="shalshelet" unicode="&#x593;" 
d="M657 770q0 -119 -83 -202t-203 -83q-118 0 -200 84q-83 85 -83 201q0 118 83 203q82 84 200 84q121 0 203 -84q83 -85 83 -203zM578 770q0 88 -60 148q-58 61 -147 61q-86 0 -146 -61q-59 -61 -59 -148q0 -84 59 -146q60 -61 146 -61q89 0 147 61q60 62 60 146z" />
    <glyph glyph-name="zaqefkatan" unicode="&#x594;" 
d="M657 770q0 -119 -83 -202t-203 -83q-118 0 -200 84q-83 85 -83 201q0 118 83 203q82 84 200 84q121 0 203 -84q83 -85 83 -203zM578 770q0 88 -60 148q-58 61 -147 61q-86 0 -146 -61q-59 -61 -59 -148q0 -84 59 -146q60 -61 146 -61q89 0 147 61q60 62 60 146z" />
    <glyph glyph-name="zaqefgadol" unicode="&#x595;" 
d="M657 770q0 -119 -83 -202t-203 -83q-118 0 -200 84q-83 85 -83 201q0 118 83 203q82 84 200 84q121 0 203 -84q83 -85 83 -203zM578 770q0 88 -60 148q-58 61 -147 61q-86 0 -146 -61q-59 -61 -59 -148q0 -84 59 -146q60 -61 146 -61q89 0 147 61q60 62 60 146z" />
    <glyph glyph-name="tipeha" unicode="&#x596;" 
d="M657 770q0 -119 -83 -202t-203 -83q-118 0 -200 84q-83 85 -83 201q0 118 83 203q82 84 200 84q121 0 203 -84q83 -85 83 -203zM578 770q0 88 -60 148q-58 61 -147 61q-86 0 -146 -61q-59 -61 -59 -148q0 -84 59 -146q60 -61 146 -61q89 0 147 61q60 62 60 146z" />
    <glyph glyph-name="revia" unicode="&#x597;" 
d="M657 770q0 -119 -83 -202t-203 -83q-118 0 -200 84q-83 85 -83 201q0 118 83 203q82 84 200 84q121 0 203 -84q83 -85 83 -203zM578 770q0 88 -60 148q-58 61 -147 61q-86 0 -146 -61q-59 -61 -59 -148q0 -84 59 -146q60 -61 146 -61q89 0 147 61q60 62 60 146z" />
    <glyph glyph-name="zarqa" unicode="&#x598;" 
d="M657 770q0 -119 -83 -202t-203 -83q-118 0 -200 84q-83 85 -83 201q0 118 83 203q82 84 200 84q121 0 203 -84q83 -85 83 -203zM578 770q0 88 -60 148q-58 61 -147 61q-86 0 -146 -61q-59 -61 -59 -148q0 -84 59 -146q60 -61 146 -61q89 0 147 61q60 62 60 146z" />
    <glyph glyph-name="pashta" unicode="&#x599;" 
d="M657 770q0 -119 -83 -202t-203 -83q-118 0 -200 84q-83 85 -83 201q0 118 83 203q82 84 200 84q121 0 203 -84q83 -85 83 -203zM578 770q0 88 -60 148q-58 61 -147 61q-86 0 -146 -61q-59 -61 -59 -148q0 -84 59 -146q60 -61 146 -61q89 0 147 61q60 62 60 146z" />
    <glyph glyph-name="yetiv" unicode="&#x59a;" 
d="M657 770q0 -119 -83 -202t-203 -83q-118 0 -200 84q-83 85 -83 201q0 118 83 203q82 84 200 84q121 0 203 -84q83 -85 83 -203zM578 770q0 88 -60 148q-58 61 -147 61q-86 0 -146 -61q-59 -61 -59 -148q0 -84 59 -146q60 -61 146 -61q89 0 147 61q60 62 60 146z" />
    <glyph glyph-name="tevir" unicode="&#x59b;" 
d="M657 770q0 -119 -83 -202t-203 -83q-118 0 -200 84q-83 85 -83 201q0 118 83 203q82 84 200 84q121 0 203 -84q83 -85 83 -203zM578 770q0 88 -60 148q-58 61 -147 61q-86 0 -146 -61q-59 -61 -59 -148q0 -84 59 -146q60 -61 146 -61q89 0 147 61q60 62 60 146z" />
    <glyph glyph-name="gereshac" unicode="&#x59c;" 
d="M657 770q0 -119 -83 -202t-203 -83q-118 0 -200 84q-83 85 -83 201q0 118 83 203q82 84 200 84q121 0 203 -84q83 -85 83 -203zM578 770q0 88 -60 148q-58 61 -147 61q-86 0 -146 -61q-59 -61 -59 -148q0 -84 59 -146q60 -61 146 -61q89 0 147 61q60 62 60 146z" />
    <glyph glyph-name="gereshmuqdam" unicode="&#x59d;" 
d="M657 770q0 -119 -83 -202t-203 -83q-118 0 -200 84q-83 85 -83 201q0 118 83 203q82 84 200 84q121 0 203 -84q83 -85 83 -203zM578 770q0 88 -60 148q-58 61 -147 61q-86 0 -146 -61q-59 -61 -59 -148q0 -84 59 -146q60 -61 146 -61q89 0 147 61q60 62 60 146z" />
    <glyph glyph-name="gershayimac" unicode="&#x59e;" 
d="M657 770q0 -119 -83 -202t-203 -83q-118 0 -200 84q-83 85 -83 201q0 118 83 203q82 84 200 84q121 0 203 -84q83 -85 83 -203zM578 770q0 88 -60 148q-58 61 -147 61q-86 0 -146 -61q-59 -61 -59 -148q0 -84 59 -146q60 -61 146 -61q89 0 147 61q60 62 60 146z" />
    <glyph glyph-name="qarneyparah" unicode="&#x59f;" 
d="M657 770q0 -119 -83 -202t-203 -83q-118 0 -200 84q-83 85 -83 201q0 118 83 203q82 84 200 84q121 0 203 -84q83 -85 83 -203zM578 770q0 88 -60 148q-58 61 -147 61q-86 0 -146 -61q-59 -61 -59 -148q0 -84 59 -146q60 -61 146 -61q89 0 147 61q60 62 60 146z" />
    <glyph glyph-name="telishagedola" unicode="&#x5a0;" 
d="M657 770q0 -119 -83 -202t-203 -83q-118 0 -200 84q-83 85 -83 201q0 118 83 203q82 84 200 84q121 0 203 -84q83 -85 83 -203zM578 770q0 88 -60 148q-58 61 -147 61q-86 0 -146 -61q-59 -61 -59 -148q0 -84 59 -146q60 -61 146 -61q89 0 147 61q60 62 60 146z" />
    <glyph glyph-name="pazer" unicode="&#x5a1;" 
d="M657 770q0 -119 -83 -202t-203 -83q-118 0 -200 84q-83 85 -83 201q0 118 83 203q82 84 200 84q121 0 203 -84q83 -85 83 -203zM578 770q0 88 -60 148q-58 61 -147 61q-86 0 -146 -61q-59 -61 -59 -148q0 -84 59 -146q60 -61 146 -61q89 0 147 61q60 62 60 146z" />
    <glyph glyph-name="munah" unicode="&#x5a3;" 
d="M657 770q0 -119 -83 -202t-203 -83q-118 0 -200 84q-83 85 -83 201q0 118 83 203q82 84 200 84q121 0 203 -84q83 -85 83 -203zM578 770q0 88 -60 148q-58 61 -147 61q-86 0 -146 -61q-59 -61 -59 -148q0 -84 59 -146q60 -61 146 -61q89 0 147 61q60 62 60 146z" />
    <glyph glyph-name="mahapakh" unicode="&#x5a4;" 
d="M657 770q0 -119 -83 -202t-203 -83q-118 0 -200 84q-83 85 -83 201q0 118 83 203q82 84 200 84q121 0 203 -84q83 -85 83 -203zM578 770q0 88 -60 148q-58 61 -147 61q-86 0 -146 -61q-59 -61 -59 -148q0 -84 59 -146q60 -61 146 -61q89 0 147 61q60 62 60 146z" />
    <glyph glyph-name="merkha" unicode="&#x5a5;" 
d="M657 770q0 -119 -83 -202t-203 -83q-118 0 -200 84q-83 85 -83 201q0 118 83 203q82 84 200 84q121 0 203 -84q83 -85 83 -203zM578 770q0 88 -60 148q-58 61 -147 61q-86 0 -146 -61q-59 -61 -59 -148q0 -84 59 -146q60 -61 146 -61q89 0 147 61q60 62 60 146z" />
    <glyph glyph-name="merkhakefula" unicode="&#x5a6;" 
d="M657 770q0 -119 -83 -202t-203 -83q-118 0 -200 84q-83 85 -83 201q0 118 83 203q82 84 200 84q121 0 203 -84q83 -85 83 -203zM578 770q0 88 -60 148q-58 61 -147 61q-86 0 -146 -61q-59 -61 -59 -148q0 -84 59 -146q60 -61 146 -61q89 0 147 61q60 62 60 146z" />
    <glyph glyph-name="darga" unicode="&#x5a7;" 
d="M657 770q0 -119 -83 -202t-203 -83q-118 0 -200 84q-83 85 -83 201q0 118 83 203q82 84 200 84q121 0 203 -84q83 -85 83 -203zM578 770q0 88 -60 148q-58 61 -147 61q-86 0 -146 -61q-59 -61 -59 -148q0 -84 59 -146q60 -61 146 -61q89 0 147 61q60 62 60 146z" />
    <glyph glyph-name="qadma" unicode="&#x5a8;" 
d="M657 770q0 -119 -83 -202t-203 -83q-118 0 -200 84q-83 85 -83 201q0 118 83 203q82 84 200 84q121 0 203 -84q83 -85 83 -203zM578 770q0 88 -60 148q-58 61 -147 61q-86 0 -146 -61q-59 -61 -59 -148q0 -84 59 -146q60 -61 146 -61q89 0 147 61q60 62 60 146z" />
    <glyph glyph-name="telishaqetana" unicode="&#x5a9;" 
d="M657 770q0 -119 -83 -202t-203 -83q-118 0 -200 84q-83 85 -83 201q0 118 83 203q82 84 200 84q121 0 203 -84q83 -85 83 -203zM578 770q0 88 -60 148q-58 61 -147 61q-86 0 -146 -61q-59 -61 -59 -148q0 -84 59 -146q60 -61 146 -61q89 0 147 61q60 62 60 146z" />
    <glyph glyph-name="yerahbenyomo" unicode="&#x5aa;" 
d="M657 770q0 -119 -83 -202t-203 -83q-118 0 -200 84q-83 85 -83 201q0 118 83 203q82 84 200 84q121 0 203 -84q83 -85 83 -203zM578 770q0 88 -60 148q-58 61 -147 61q-86 0 -146 -61q-59 -61 -59 -148q0 -84 59 -146q60 -61 146 -61q89 0 147 61q60 62 60 146z" />
    <glyph glyph-name="ole" unicode="&#x5ab;" 
d="M657 770q0 -119 -83 -202t-203 -83q-118 0 -200 84q-83 85 -83 201q0 118 83 203q82 84 200 84q121 0 203 -84q83 -85 83 -203zM578 770q0 88 -60 148q-58 61 -147 61q-86 0 -146 -61q-59 -61 -59 -148q0 -84 59 -146q60 -61 146 -61q89 0 147 61q60 62 60 146z" />
    <glyph glyph-name="iluy" unicode="&#x5ac;" 
d="M657 770q0 -119 -83 -202t-203 -83q-118 0 -200 84q-83 85 -83 201q0 118 83 203q82 84 200 84q121 0 203 -84q83 -85 83 -203zM578 770q0 88 -60 148q-58 61 -147 61q-86 0 -146 -61q-59 -61 -59 -148q0 -84 59 -146q60 -61 146 -61q89 0 147 61q60 62 60 146z" />
    <glyph glyph-name="dehi" unicode="&#x5ad;" 
d="M657 770q0 -119 -83 -202t-203 -83q-118 0 -200 84q-83 85 -83 201q0 118 83 203q82 84 200 84q121 0 203 -84q83 -85 83 -203zM578 770q0 88 -60 148q-58 61 -147 61q-86 0 -146 -61q-59 -61 -59 -148q0 -84 59 -146q60 -61 146 -61q89 0 147 61q60 62 60 146z" />
    <glyph glyph-name="zinor" unicode="&#x5ae;" 
d="M657 770q0 -119 -83 -202t-203 -83q-118 0 -200 84q-83 85 -83 201q0 118 83 203q82 84 200 84q121 0 203 -84q83 -85 83 -203zM578 770q0 88 -60 148q-58 61 -147 61q-86 0 -146 -61q-59 -61 -59 -148q0 -84 59 -146q60 -61 146 -61q89 0 147 61q60 62 60 146z" />
    <glyph glyph-name="masoracircle" unicode="&#x5af;" 
d="M657 770q0 -119 -83 -202t-203 -83q-118 0 -200 84q-83 85 -83 201q0 118 83 203q82 84 200 84q121 0 203 -84q83 -85 83 -203zM578 770q0 88 -60 148q-58 61 -147 61q-86 0 -146 -61q-59 -61 -59 -148q0 -84 59 -146q60 -61 146 -61q89 0 147 61q60 62 60 146z" />
    <glyph glyph-name="sheva" unicode="&#x5b0;" horiz-adv-x="2" 
d="M88 -243q0 -35 -25.5 -60.5t-60.5 -25.5q-36 0 -62 25.5t-26 60.5t27 59.5t61 24.5q37 0 61.5 -24.5t24.5 -59.5zM88 -512q0 -34 -25.5 -60t-60.5 -26q-36 0 -62 26t-26 60q0 35 27 59.5t61 24.5q37 0 61.5 -24.5t24.5 -59.5z" />
    <glyph glyph-name="hatafsegol" unicode="&#x5b1;" horiz-adv-x="2" 
d="M-137 -243q0 -35 -25.5 -60.5t-60.5 -25.5q-34 0 -60 25t-26 61q0 33 25.5 58.5t60.5 25.5q37 0 61.5 -24.5t24.5 -59.5zM98 -243q0 -35 -25.5 -60.5t-60.5 -25.5q-34 0 -60.5 25.5t-26.5 60.5q0 34 28 59q26 25 59 25q37 0 61.5 -23.5t24.5 -60.5zM-10 -450
q0 -35 -25.5 -60.5t-60.5 -25.5q-34 0 -60 25t-26 61q0 35 25.5 59.5t60.5 24.5t60.5 -24.5t25.5 -59.5zM311 -243q0 -29 -22.5 -49.5t-50.5 -20.5q-70 0 -70 70q0 74 70 74q73 0 73 -74zM311 -458q0 -29 -21.5 -50.5t-51.5 -21.5q-70 0 -70 72q0 30 20.5 50.5t49.5 20.5
q73 0 73 -71z" />
    <glyph glyph-name="hatafpatah" unicode="&#x5b2;" horiz-adv-x="2" 
d="M287 -243q0 -29 -22 -49.5t-52 -20.5q-70 0 -70 70q0 74 70 74q74 0 74 -74zM287 -458q0 -29 -21.5 -50.5t-52.5 -21.5q-70 0 -70 72q0 71 70 71q74 0 74 -71zM43 -305h-301q-26 0 -26 31v66q0 30 26 30h301q27 0 27 -30v-66q0 -31 -27 -31z" />
    <glyph glyph-name="hatafqamats" unicode="&#x5b3;" horiz-adv-x="2" 
d="M287 -243q0 -29 -22 -49.5t-52 -20.5q-70 0 -70 70q0 74 70 74q33 0 53.5 -20.5t20.5 -53.5zM287 -458q0 -29 -21.5 -50.5t-52.5 -21.5q-70 0 -70 72q0 71 70 71q74 0 74 -71zM-258 -178h301q27 0 27 -30v-66q0 -31 -27 -31h-118q0 -42 20 -88l23 -51q8 -18 8 -35
q0 -33 -24.5 -57.5t-59.5 -24.5t-59.5 24.5t-24.5 57.5q0 17 8 35l23 51q22 48 22 88h-119q-26 0 -26 31v66q0 30 26 30z" />
    <glyph glyph-name="hiriq" unicode="&#x5b4;" horiz-adv-x="2" 
d="M92 -243q0 -35 -28 -62q-27 -28 -62 -28q-36 0 -64 28q-28 27 -28 62q0 36 27.5 62t64.5 26q39 0 64.5 -25.5t25.5 -62.5z" />
    <glyph glyph-name="tsere" unicode="&#x5b5;" horiz-adv-x="2" 
d="M-45 -243q0 -35 -25.5 -60.5t-60.5 -25.5q-34 0 -60 25.5t-26 60.5t26 59.5t60 24.5q86 0 86 -84zM219 -243q0 -35 -25.5 -60.5t-60.5 -25.5t-60.5 25.5t-25.5 60.5t25.5 59.5t60.5 24.5q37 0 61.5 -24.5t24.5 -59.5z" />
    <glyph glyph-name="segol" unicode="&#x5b6;" horiz-adv-x="2" 
d="M-45 -243q0 -35 -25.5 -60.5t-60.5 -25.5q-34 0 -60 25.5t-26 60.5t26 59.5t60 24.5q86 0 86 -84zM219 -243q0 -35 -25.5 -60.5t-60.5 -25.5t-60.5 25.5t-25.5 60.5t25.5 59.5t60.5 24.5q37 0 61.5 -24.5t24.5 -59.5zM94 -468q0 -35 -25.5 -61t-60.5 -26q-34 0 -59.5 26
t-25.5 61q0 34 25.5 58.5t59.5 24.5q36 0 61 -24.5t25 -58.5z" />
    <glyph glyph-name="patah" unicode="&#x5b7;" horiz-adv-x="2" 
d="M193 -305h-383q-27 0 -27 31v66q0 30 27 30h383q26 0 26 -30v-66q0 -31 -26 -31z" />
    <glyph glyph-name="qamats" unicode="&#x5b8;" horiz-adv-x="2" 
d="M-190 -178h383q26 0 26 -30v-66q0 -31 -26 -31h-158q0 -47 18 -88l23 -51q8 -18 8 -35q0 -35 -24 -58.5t-58 -23.5t-58.5 24.5t-24.5 57.5q0 17 8 35l22 51q21 45 21 88h-160q-27 0 -27 31v66q0 30 27 30z" />
    <glyph glyph-name="holam" unicode="&#x5b9;" horiz-adv-x="2" 
d="M86 1230q0 -35 -25.5 -60.5t-60.5 -25.5q-34 0 -60 25.5t-26 60.5q0 33 26 58.5t60 25.5q39 0 62.5 -23.5t23.5 -60.5z" />
    <glyph glyph-name="shuruq" unicode="&#x5bb;" horiz-adv-x="2" 
d="M92 -243q0 -35 -25.5 -60.5t-60.5 -25.5t-60.5 25.5t-25.5 60.5t25.5 59.5t60.5 24.5q86 0 86 -84zM235 -417q0 -35 -25.5 -60.5t-60.5 -25.5q-34 0 -59.5 25.5t-25.5 60.5t25.5 59.5t59.5 24.5q37 0 61.5 -23.5t24.5 -60.5zM376 -589q0 -35 -25.5 -60.5t-60.5 -25.5
q-34 0 -60 25.5t-26 60.5q0 32 26 58t60 26q86 0 86 -84z" />
    <glyph glyph-name="dagesh" unicode="&#x5bc;" horiz-adv-x="2" 
d="M86 457q0 -35 -25.5 -60.5t-60.5 -25.5q-34 0 -60 25.5t-26 60.5q0 32 27 58q28 26 59 26q37 0 61.5 -23.5t24.5 -60.5z" />
    <glyph glyph-name="meteg" unicode="&#x5bd;" horiz-adv-x="2" 
d="M67 -204v-383q0 -27 -31 -27h-65q-31 0 -31 27v383q0 26 31 26h65q31 0 31 -26z" />
    <glyph glyph-name="maqaf" unicode="&#x5be;" horiz-adv-x="563" 
d="M430 1025v-235h-315v235h315z" />
    <glyph glyph-name="rafe" unicode="&#x5bf;" horiz-adv-x="563" 
d="M430 1025v-235h-315v235h315z" />
    <glyph glyph-name="paseq" unicode="&#x5c0;" horiz-adv-x="442" 
d="M319 1350v-1641h-197v1641h197z" />
    <glyph glyph-name="shindot" unicode="&#x5c1;" horiz-adv-x="2" 
d="M1007 1231q0 -35 -25.5 -60.5t-60.5 -25.5q-34 0 -60 25.5t-26 60.5q0 33 26 58.5t60 25.5q39 0 62.5 -23.5t23.5 -60.5z" />
    <glyph glyph-name="sindot" unicode="&#x5c2;" horiz-adv-x="2" 
d="M257 1231q0 -35 -25.5 -60.5t-60.5 -25.5q-34 0 -60 25.5t-26 60.5q0 33 26 58.5t60 25.5q39 0 62.5 -23.5t23.5 -60.5z" />
    <glyph glyph-name="sofpasuq" unicode="&#x5c3;" horiz-adv-x="411" 
d="M313 874v-268h-231v268h231zM313 268v-268h-231v268h231z" />
    <glyph glyph-name="upperdot" unicode="&#x5c4;" horiz-adv-x="2" 
d="M86 1230q0 -35 -25.5 -60.5t-60.5 -25.5q-34 0 -60 25.5t-26 60.5q0 33 26 58.5t60 25.5q39 0 62.5 -23.5t23.5 -60.5z" />
    <glyph glyph-name="alef" unicode="&#x5d0;" horiz-adv-x="961" 
d="M664 458l227 -458h-305l-224 485v-485h-280v397q0 204 200 233l-233 417h307l236 -445v445h285v-357q0 -92 -57.5 -155.5t-155.5 -76.5z" />
    <glyph glyph-name="bet" unicode="&#x5d1;" horiz-adv-x="793" 
d="M741 268v-268h-684v268h312v480q0 30 -33 30h-258v269h422q86 0 120 -34q39 -37 39 -132v-613h82z" />
    <glyph glyph-name="gimel" unicode="&#x5d2;" horiz-adv-x="645" 
d="M569 193l15 -140q5 -53 -11 -53h-272q9 11 6 55l-14 215h-19q-106 -297 -223 -297v326q113 74 199 211q18 28 18 68v151q0 49 -47 49h-160v269h322q92 0 132 -40q44 -44 44 -149v-514q0 -67 10 -151z" />
    <glyph glyph-name="dalet" unicode="&#x5d3;" horiz-adv-x="776" 
d="M715 1047v-269h-82v-778h-295v778h-297v269h674z" />
    <glyph glyph-name="he" unicode="&#x5d4;" horiz-adv-x="911" 
d="M819 901v-901h-291v748q0 30 -32 30h-408v269h571q160 0 160 -146zM379 627v-627h-291v627h291z" />
    <glyph glyph-name="vav" unicode="&#x5d5;" horiz-adv-x="475" 
d="M383 1047v-1047h-291v1047h291z" />
    <glyph glyph-name="zayin" unicode="&#x5d6;" horiz-adv-x="602" 
d="M535 1047v-269h-54q-49 0 -49 -82v-696h-291v608q0 136 82 170h-178v269h490z" />
    <glyph glyph-name="het" unicode="&#x5d7;" horiz-adv-x="936" 
d="M844 897v-897h-291v741q0 37 -33 37h-137v-778h-291v1047h606q146 0 146 -150z" />
    <glyph glyph-name="tet" unicode="&#x5d8;" horiz-adv-x="961" 
d="M461 1047h432l-57 -750q-14 -173 -84 -243t-215 -70h-125q-150 0 -218 68q-69 69 -83 245l-60 750h297l55 -742q5 -53 58 -53h26q56 0 60 55l37 471h-123v269z" />
    <glyph glyph-name="yod" unicode="&#x5d9;" horiz-adv-x="463" 
d="M377 1047v-621h-291v621h291z" />
    <glyph glyph-name="finalkaf" unicode="&#x5da;" horiz-adv-x="725" 
d="M633 901v-1159h-291v1006q0 30 -33 30h-264v269h428q160 0 160 -146z" />
    <glyph glyph-name="kaf" unicode="&#x5db;" horiz-adv-x="745" 
d="M664 754v-461q0 -159 -64 -226t-215 -67h-317v268h213q55 0 76.5 20.5t21.5 73.5v322q0 94 -98 94h-213v269h317q147 0 209 -60q70 -66 70 -233z" />
    <glyph glyph-name="lamed" unicode="&#x5dc;" horiz-adv-x="754" 
d="M336 1047h350l-102 -756q-21 -152 -73 -216q-61 -75 -192 -75h-108v252h27q41 0 56 24q11 17 17 66l54 436h-320v537h291v-268z" />
    <glyph glyph-name="finalmem" unicode="&#x5dd;" horiz-adv-x="956" 
d="M864 897v-897h-772v1047h627q145 0 145 -150zM383 258h190v483q0 37 -32 37h-158v-520z" />
    <glyph glyph-name="mem" unicode="&#x5de;" horiz-adv-x="1004" 
d="M911 854v-854h-411v268h121v463q0 69 -54 69h-35q-50 0 -61 -71l-109 -729h-294l84 549l-111 498h289l55 -232l14 70q18 87 59 125q50 45 150 45h111q192 0 192 -201z" />
    <glyph glyph-name="finalnun" unicode="&#x5df;" horiz-adv-x="475" 
d="M383 1047v-1305h-291v1305h291z" />
    <glyph glyph-name="nun" unicode="&#x5e0;" horiz-adv-x="582" 
d="M489 877v-877h-428v268h138v473q0 37 -33 37h-105v269h263q165 0 165 -170z" />
    <glyph glyph-name="samekh" unicode="&#x5e1;" horiz-adv-x="963" 
d="M51 1047h844l-66 -750q-15 -174 -85 -245q-68 -68 -214 -68h-114q-150 0 -217 69q-67 68 -82 244zM545 311l35 467h-213l34 -467q5 -59 52 -59h41q46 0 51 59z" />
    <glyph glyph-name="ayin" unicode="&#x5e2;" horiz-adv-x="924" 
d="M831 1047v-713q0 -334 -348 -334h-432v268h131l-110 779h293l96 -779h4q80 0 80 74v705h286z" />
    <glyph glyph-name="finalpe" unicode="&#x5e3;" horiz-adv-x="905" 
d="M813 897v-1155h-291v1020q0 37 -33 37h-133v-164q0 -23 21 -23h49v-200h-219q-125 0 -125 149v486h586q145 0 145 -150z" />
    <glyph glyph-name="pe" unicode="&#x5e4;" horiz-adv-x="911" 
d="M819 897v-747q0 -150 -145 -150h-586v268h416q33 0 33 37v459q0 37 -33 37h-148v-170q0 -23 21 -23h45v-192h-209q-125 0 -125 149v482h586q145 0 145 -150z" />
    <glyph glyph-name="finaltsadi" unicode="&#x5e5;" horiz-adv-x="870" 
d="M515 1047h294l-26 -302q-16 -192 -139 -298q-106 -91 -248 -91q2 -62 2 -94v-520h-289v602q0 58 -32 383l-32 320h290l30 -273q6 -91 20 -246q26 0 56 47q40 63 47 164z" />
    <glyph glyph-name="tsadi" unicode="&#x5e6;" horiz-adv-x="881" 
d="M809 1047v-295q0 -235 -234 -271l207 -440q9 -19 9 -29q0 -12 -46 -12h-677v268h311l-359 779h306l190 -439v439h293z" />
    <glyph glyph-name="qof" unicode="&#x5e7;" horiz-adv-x="983" 
d="M82 1047h840l-117 -756q-23 -148 -84 -215q-67 -76 -201 -76h-67v252h4q67 0 78 90l51 436h-504v269zM383 639v-903h-291v903h291z" />
    <glyph glyph-name="resh" unicode="&#x5e8;" horiz-adv-x="725" 
d="M633 901v-901h-291v748q0 30 -33 30h-264v269h428q160 0 160 -146z" />
    <glyph glyph-name="shin" unicode="&#x5e9;" horiz-adv-x="1204" 
d="M852 1047h281l-56 -736q-24 -325 -415 -325h-134q-391 0 -415 325l-56 736h281l34 -478h31q58 0 58 76v402h266v-383q0 -138 -57 -204q-64 -75 -211 -75h-72l2 -14q12 -71 49 -90q32 -17 129 -17h56q81 0 118 19q52 25 58 100z" />
    <glyph glyph-name="tav" unicode="&#x5ea;" horiz-adv-x="967" 
d="M874 897v-897h-290v741q0 37 -33 37h-117v-612q0 -166 -164 -166h-225v270h76q33 0 33 33v475h-84v269h659q145 0 145 -150z" />
    <glyph glyph-name="vavvav" unicode="&#x5f0;" horiz-adv-x="700" 
d="M609 712q0 -110 -77 -187q-76 -76 -187 -76q-108 0 -185 77t-77 186q0 110 77 187t185 77q110 0 187 -77t77 -187zM536 712q0 81 -56 137q-55 55 -135 55t-135 -55t-55 -137q0 -79 55 -135q56 -56 135 -56t135 56q56 58 56 135z" />
    <glyph glyph-name="vavyod" unicode="&#x5f1;" horiz-adv-x="700" 
d="M609 712q0 -110 -77 -187q-76 -76 -187 -76q-108 0 -185 77t-77 186q0 110 77 187t185 77q110 0 187 -77t77 -187zM536 712q0 81 -56 137q-55 55 -135 55t-135 -55t-55 -137q0 -79 55 -135q56 -56 135 -56t135 56q56 58 56 135z" />
    <glyph glyph-name="yodyod" unicode="&#x5f2;" horiz-adv-x="700" 
d="M609 712q0 -110 -77 -187q-76 -76 -187 -76q-108 0 -185 77t-77 186q0 110 77 187t185 77q110 0 187 -77t77 -187zM536 712q0 81 -56 137q-55 55 -135 55t-135 -55t-55 -137q0 -79 55 -135q56 -56 135 -56t135 56q56 58 56 135z" />
    <glyph glyph-name="geresh" unicode="&#x5f3;" horiz-adv-x="406" 
d="M149 1247h225l-135 -469h-190z" />
    <glyph glyph-name="gershayim" unicode="&#x5f4;" horiz-adv-x="667" 
d="M410 1247h224l-136 -469h-172zM116 1247h225l-138 -469h-170z" />
    <glyph glyph-name="uni200C" unicode="&#x200c;" 
d="M657 770q0 -119 -83 -202t-203 -83q-118 0 -200 84q-83 85 -83 201q0 118 83 203q82 84 200 84q121 0 203 -84q83 -85 83 -203zM578 770q0 88 -60 148q-58 61 -147 61q-86 0 -146 -61q-59 -61 -59 -148q0 -84 59 -146q60 -61 146 -61q89 0 147 61q60 62 60 146z" />
    <glyph glyph-name="uni200D" unicode="&#x200d;" 
d="M657 770q0 -119 -83 -202t-203 -83q-118 0 -200 84q-83 85 -83 201q0 118 83 203q82 84 200 84q121 0 203 -84q83 -85 83 -203zM578 770q0 88 -60 148q-58 61 -147 61q-86 0 -146 -61q-59 -61 -59 -148q0 -84 59 -146q60 -61 146 -61q89 0 147 61q60 62 60 146z" />
    <glyph glyph-name="uni200E" unicode="&#x200e;" 
d="M657 770q0 -119 -83 -202t-203 -83q-118 0 -200 84q-83 85 -83 201q0 118 83 203q82 84 200 84q121 0 203 -84q83 -85 83 -203zM578 770q0 88 -60 148q-58 61 -147 61q-86 0 -146 -61q-59 -61 -59 -148q0 -84 59 -146q60 -61 146 -61q89 0 147 61q60 62 60 146z" />
    <glyph glyph-name="uni200F" unicode="&#x200f;" 
d="M657 770q0 -119 -83 -202t-203 -83q-118 0 -200 84q-83 85 -83 201q0 118 83 203q82 84 200 84q121 0 203 -84q83 -85 83 -203zM578 770q0 88 -60 148q-58 61 -147 61q-86 0 -146 -61q-59 -61 -59 -148q0 -84 59 -146q60 -61 146 -61q89 0 147 61q60 62 60 146z" />
    <glyph glyph-name="endash" unicode="&#x2013;" horiz-adv-x="690" 
d="M575 614v-184h-460v184h460z" />
    <glyph glyph-name="emdash" unicode="&#x2014;" horiz-adv-x="988" 
d="M859 614v-184h-744v184h744z" />
    <glyph glyph-name="quoteleft" unicode="&#x2018;" horiz-adv-x="406" 
d="M274 778h-225l135 469h190z" />
    <glyph glyph-name="quoteright" unicode="&#x2019;" horiz-adv-x="406" 
d="M149 1247h225l-135 -469h-190z" />
    <glyph glyph-name="quotedblleft" unicode="&#x201c;" horiz-adv-x="667" 
d="M257 778h-224l136 469h172zM551 778h-225l138 469h170z" />
    <glyph glyph-name="quotedblright" unicode="&#x201d;" horiz-adv-x="667" 
d="M410 1247h224l-136 -469h-172zM116 1247h225l-138 -469h-170z" />
    <glyph glyph-name="middot.001" unicode="&#x2022;" horiz-adv-x="612" 
d="M524 580q0 -92 -63 -153q-62 -62 -150 -62q-89 0 -153 62q-62 62 -62 153q0 90 61 151q62 62 154 62q89 0 151 -62t62 -151z" />
    <glyph glyph-name="uni2039" unicode="&#x2039;" horiz-adv-x="681" 
d="M318 465l244 -473h-57l-387 473l387 469h57z" />
    <glyph glyph-name="uni203A" unicode="&#x203a;" horiz-adv-x="681" 
d="M171 934l395 -471l-395 -471h-57l243 471l-243 471h57z" />
    <glyph glyph-name="newsheqelsign" unicode="&#x20aa;" horiz-adv-x="1264" 
d="M1149 904v-757q0 -64 -32.5 -105.5t-82.5 -41.5h-637v547h187v-377h356q22 0 22 32v702h187zM867 757v-399h-187v344q0 32 -23 32h-355v-734h-187v904h637q49 0 82 -42t33 -105z" />
    <glyph glyph-name="bullet" unicode="&#x22c5;" horiz-adv-x="662" 
d="M565 627q0 -98 -68 -166q-67 -66 -161 -66q-98 0 -166 66q-68 68 -68 166t67 164q67 67 167 67q96 0 162 -67q67 -66 67 -164z" />
    <glyph glyph-name="uni25A0" unicode="&#x25a0;" 
d="M657 770q0 -119 -83 -202t-203 -83q-118 0 -200 84q-83 85 -83 201q0 118 83 203q82 84 200 84q121 0 203 -84q83 -85 83 -203zM578 770q0 88 -60 148q-58 61 -147 61q-86 0 -146 -61q-59 -61 -59 -148q0 -84 59 -146q60 -61 146 -61q89 0 147 61q60 62 60 146z" />
    <glyph glyph-name="uni25A1" unicode="&#x25a1;" 
d="M657 770q0 -119 -83 -202t-203 -83q-118 0 -200 84q-83 85 -83 201q0 118 83 203q82 84 200 84q121 0 203 -84q83 -85 83 -203zM578 770q0 88 -60 148q-58 61 -147 61q-86 0 -146 -61q-59 -61 -59 -148q0 -84 59 -146q60 -61 146 -61q89 0 147 61q60 62 60 146z" />
    <glyph glyph-name="uni25C6" unicode="&#x25c6;" 
d="M657 770q0 -119 -83 -202t-203 -83q-118 0 -200 84q-83 85 -83 201q0 118 83 203q82 84 200 84q121 0 203 -84q83 -85 83 -203zM578 770q0 88 -60 148q-58 61 -147 61q-86 0 -146 -61q-59 -61 -59 -148q0 -84 59 -146q60 -61 146 -61q89 0 147 61q60 62 60 146z" />
    <glyph glyph-name="uni25C7" unicode="&#x25c7;" 
d="M657 770q0 -119 -83 -202t-203 -83q-118 0 -200 84q-83 85 -83 201q0 118 83 203q82 84 200 84q121 0 203 -84q83 -85 83 -203zM578 770q0 88 -60 148q-58 61 -147 61q-86 0 -146 -61q-59 -61 -59 -148q0 -84 59 -146q60 -61 146 -61q89 0 147 61q60 62 60 146z" />
    <glyph glyph-name="uni25CB" unicode="&#x25cb;" 
d="M657 770q0 -119 -83 -202t-203 -83q-118 0 -200 84q-83 85 -83 201q0 118 83 203q82 84 200 84q121 0 203 -84q83 -85 83 -203zM578 770q0 88 -60 148q-58 61 -147 61q-86 0 -146 -61q-59 -61 -59 -148q0 -84 59 -146q60 -61 146 -61q89 0 147 61q60 62 60 146z" />
    <glyph glyph-name="uni25CC" unicode="&#x25cc;" 
d="M657 770q0 -119 -83 -202t-203 -83q-118 0 -200 84q-83 85 -83 201q0 118 83 203q82 84 200 84q121 0 203 -84q83 -85 83 -203zM578 770q0 88 -60 148q-58 61 -147 61q-86 0 -146 -61q-59 -61 -59 -148q0 -84 59 -146q60 -61 146 -61q89 0 147 61q60 62 60 146z" />
    <glyph glyph-name="uni2605" unicode="&#x2605;" 
d="M657 770q0 -119 -83 -202t-203 -83q-118 0 -200 84q-83 85 -83 201q0 118 83 203q82 84 200 84q121 0 203 -84q83 -85 83 -203zM578 770q0 88 -60 148q-58 61 -147 61q-86 0 -146 -61q-59 -61 -59 -148q0 -84 59 -146q60 -61 146 -61q89 0 147 61q60 62 60 146z" />
    <glyph glyph-name="uni274F" unicode="&#x274f;" 
d="M657 770q0 -119 -83 -202t-203 -83q-118 0 -200 84q-83 85 -83 201q0 118 83 203q82 84 200 84q121 0 203 -84q83 -85 83 -203zM578 770q0 88 -60 148q-58 61 -147 61q-86 0 -146 -61q-59 -61 -59 -148q0 -84 59 -146q60 -61 146 -61q89 0 147 61q60 62 60 146z" />
    <glyph glyph-name="finalkafsheva" unicode="&#xe802;" horiz-adv-x="725" 
d="M633 901v-1159h-291v1006q0 30 -33 30h-264v269h428q160 0 160 -146zM235 449q0 -35 -25.5 -60.5t-60.5 -25.5q-36 0 -62 25.5t-26 60.5t27 59.5t61 24.5q37 0 61.5 -24.5t24.5 -59.5zM235 180q0 -34 -25.5 -60t-60.5 -26q-36 0 -62 26t-26 60q0 35 27 59.5t61 24.5
q37 0 61.5 -24.5t24.5 -59.5z" />
    <glyph glyph-name="finalkafqamats" unicode="&#xe803;" horiz-adv-x="725" 
d="M633 901v-1159h-291v1006q0 30 -33 30h-264v269h428q160 0 160 -146zM-87 481h383q26 0 26 -30v-66q0 -31 -26 -31h-158q0 -48 18 -88l23 -51q8 -18 8 -35q0 -35 -24 -58.5t-58 -23.5t-58.5 24.5t-24.5 57.5q0 17 8 35l22 51q21 45 21 88h-160q-27 0 -27 31v66
q0 30 27 30z" />
    <glyph glyph-name="lamedholam" unicode="&#xe804;" horiz-adv-x="754" 
d="M336 1047h350l-102 -756q-21 -152 -73 -216q-61 -75 -192 -75h-108v252h27q41 0 56 24q11 17 17 66l54 436h-320v537h291v-268zM16 1230q0 -35 -25.5 -60.5t-60.5 -25.5q-34 0 -60 25.5t-26 60.5q0 33 26 58.5t60 25.5q39 0 62.5 -23.5t23.5 -60.5z" />
    <glyph glyph-name="lameddageshholam" unicode="&#xe805;" horiz-adv-x="754" 
d="M336 1047h350l-102 -756q-21 -152 -73 -216q-61 -75 -192 -75h-108v252h27q41 0 56 24q11 17 17 66l54 436h-320v537h291v-268zM213 531q0 -14 -11 -24t-25 -10q-15 0 -26 10t-11 24q0 13 11.5 23t25.5 10q15 0 25.5 -9t10.5 -24zM16 1230q0 -35 -25.5 -60.5t-60.5 -25.5
q-34 0 -60 25.5t-26 60.5q0 33 26 58.5t60 25.5q39 0 62.5 -23.5t23.5 -60.5z" />
    <glyph glyph-name="yodhiriq" unicode="&#xfb1d;" horiz-adv-x="700" 
d="M609 712q0 -110 -77 -187q-76 -76 -187 -76q-108 0 -185 77t-77 186q0 110 77 187t185 77q110 0 187 -77t77 -187zM536 712q0 81 -56 137q-55 55 -135 55t-135 -55t-55 -137q0 -79 55 -135q56 -56 135 -56t135 56q56 58 56 135z" />
    <glyph glyph-name="uniFB1E" unicode="&#xfb1e;" horiz-adv-x="700" 
d="M609 712q0 -110 -77 -187q-76 -76 -187 -76q-108 0 -185 77t-77 186q0 110 77 187t185 77q110 0 187 -77t77 -187zM536 712q0 81 -56 137q-55 55 -135 55t-135 -55t-55 -137q0 -79 55 -135q56 -56 135 -56t135 56q56 58 56 135z" />
    <glyph glyph-name="doubleyodpatah" unicode="&#xfb1f;" horiz-adv-x="700" 
d="M609 712q0 -110 -77 -187q-76 -76 -187 -76q-108 0 -185 77t-77 186q0 110 77 187t185 77q110 0 187 -77t77 -187zM536 712q0 81 -56 137q-55 55 -135 55t-135 -55t-55 -137q0 -79 55 -135q56 -56 135 -56t135 56q56 58 56 135z" />
    <glyph glyph-name="narrowayin" unicode="&#xfb20;" horiz-adv-x="700" 
d="M609 712q0 -110 -77 -187q-76 -76 -187 -76q-108 0 -185 77t-77 186q0 110 77 187t185 77q110 0 187 -77t77 -187zM536 712q0 81 -56 137q-55 55 -135 55t-135 -55t-55 -137q0 -79 55 -135q56 -56 135 -56t135 56q56 58 56 135z" />
    <glyph glyph-name="widealef" unicode="&#xfb21;" horiz-adv-x="700" 
d="M609 712q0 -110 -77 -187q-76 -76 -187 -76q-108 0 -185 77t-77 186q0 110 77 187t185 77q110 0 187 -77t77 -187zM536 712q0 81 -56 137q-55 55 -135 55t-135 -55t-55 -137q0 -79 55 -135q56 -56 135 -56t135 56q56 58 56 135z" />
    <glyph glyph-name="widedalet" unicode="&#xfb22;" horiz-adv-x="700" 
d="M609 712q0 -110 -77 -187q-76 -76 -187 -76q-108 0 -185 77t-77 186q0 110 77 187t185 77q110 0 187 -77t77 -187zM536 712q0 81 -56 137q-55 55 -135 55t-135 -55t-55 -137q0 -79 55 -135q56 -56 135 -56t135 56q56 58 56 135z" />
    <glyph glyph-name="widehe" unicode="&#xfb23;" horiz-adv-x="700" 
d="M609 712q0 -110 -77 -187q-76 -76 -187 -76q-108 0 -185 77t-77 186q0 110 77 187t185 77q110 0 187 -77t77 -187zM536 712q0 81 -56 137q-55 55 -135 55t-135 -55t-55 -137q0 -79 55 -135q56 -56 135 -56t135 56q56 58 56 135z" />
    <glyph glyph-name="widekaf" unicode="&#xfb24;" horiz-adv-x="700" 
d="M609 712q0 -110 -77 -187q-76 -76 -187 -76q-108 0 -185 77t-77 186q0 110 77 187t185 77q110 0 187 -77t77 -187zM536 712q0 81 -56 137q-55 55 -135 55t-135 -55t-55 -137q0 -79 55 -135q56 -56 135 -56t135 56q56 58 56 135z" />
    <glyph glyph-name="widelamed" unicode="&#xfb25;" horiz-adv-x="700" 
d="M609 712q0 -110 -77 -187q-76 -76 -187 -76q-108 0 -185 77t-77 186q0 110 77 187t185 77q110 0 187 -77t77 -187zM536 712q0 81 -56 137q-55 55 -135 55t-135 -55t-55 -137q0 -79 55 -135q56 -56 135 -56t135 56q56 58 56 135z" />
    <glyph glyph-name="widefinalmem" unicode="&#xfb26;" horiz-adv-x="700" 
d="M609 712q0 -110 -77 -187q-76 -76 -187 -76q-108 0 -185 77t-77 186q0 110 77 187t185 77q110 0 187 -77t77 -187zM536 712q0 81 -56 137q-55 55 -135 55t-135 -55t-55 -137q0 -79 55 -135q56 -56 135 -56t135 56q56 58 56 135z" />
    <glyph glyph-name="wideresh" unicode="&#xfb27;" horiz-adv-x="700" 
d="M609 712q0 -110 -77 -187q-76 -76 -187 -76q-108 0 -185 77t-77 186q0 110 77 187t185 77q110 0 187 -77t77 -187zM536 712q0 81 -56 137q-55 55 -135 55t-135 -55t-55 -137q0 -79 55 -135q56 -56 135 -56t135 56q56 58 56 135z" />
    <glyph glyph-name="widetav" unicode="&#xfb28;" horiz-adv-x="700" 
d="M609 712q0 -110 -77 -187q-76 -76 -187 -76q-108 0 -185 77t-77 186q0 110 77 187t185 77q110 0 187 -77t77 -187zM536 712q0 81 -56 137q-55 55 -135 55t-135 -55t-55 -137q0 -79 55 -135q56 -56 135 -56t135 56q56 58 56 135z" />
    <glyph glyph-name="hebplus" unicode="&#xfb29;" horiz-adv-x="690" 
d="M632 614v-184h-575v184h198v207h180v-207h197z" />
    <glyph glyph-name="shinshindot" unicode="&#xfb2a;" horiz-adv-x="1204" 
d="M852 1047h281l-56 -736q-24 -325 -415 -325h-134q-391 0 -415 325l-56 736h281l34 -478h31q58 0 58 76v402h266v-383q0 -138 -57 -204q-64 -75 -211 -75h-72l2 -14q12 -71 49 -90q32 -17 129 -17h56q81 0 118 19q52 25 58 100zM1007 1231q0 -35 -25.5 -60.5t-60.5 -25.5
q-34 0 -60 25.5t-26 60.5q0 33 26 58.5t60 25.5q39 0 62.5 -23.5t23.5 -60.5z" />
    <glyph glyph-name="shinsindot" unicode="&#xfb2b;" horiz-adv-x="1204" 
d="M852 1047h281l-56 -736q-24 -325 -415 -325h-134q-391 0 -415 325l-56 736h281l34 -478h31q58 0 58 76v402h266v-383q0 -138 -57 -204q-64 -75 -211 -75h-72l2 -14q12 -71 49 -90q32 -17 129 -17h56q81 0 118 19q52 25 58 100zM257 1231q0 -35 -25.5 -60.5t-60.5 -25.5
q-34 0 -60 25.5t-26 60.5q0 33 26 58.5t60 25.5q39 0 62.5 -23.5t23.5 -60.5z" />
    <glyph glyph-name="shindageshshindot" unicode="&#xfb2c;" horiz-adv-x="1204" 
d="M852 1047h281l-56 -736q-24 -325 -415 -325h-134q-391 0 -415 325l-56 736h281l34 -478h31q58 0 58 76v402h266v-383q0 -138 -57 -204q-64 -75 -211 -75h-72l2 -14q12 -71 49 -90q32 -17 129 -17h56q81 0 118 19q52 25 58 100zM1007 1231q0 -35 -25.5 -60.5t-60.5 -25.5
q-34 0 -60 25.5t-26 60.5q0 33 26 58.5t60 25.5q39 0 62.5 -23.5t23.5 -60.5zM809 669q0 -14 -11 -24t-25 -10q-15 0 -26 10t-11 24q0 13 11.5 23t25.5 10q15 0 25.5 -9t10.5 -24z" />
    <glyph glyph-name="shindageshsindot" unicode="&#xfb2d;" horiz-adv-x="1204" 
d="M852 1047h281l-56 -736q-24 -325 -415 -325h-134q-391 0 -415 325l-56 736h281l34 -478h31q58 0 58 76v402h266v-383q0 -138 -57 -204q-64 -75 -211 -75h-72l2 -14q12 -71 49 -90q32 -17 129 -17h56q81 0 118 19q52 25 58 100zM257 1231q0 -35 -25.5 -60.5t-60.5 -25.5
q-34 0 -60 25.5t-26 60.5q0 33 26 58.5t60 25.5q39 0 62.5 -23.5t23.5 -60.5zM809 669q0 -14 -11 -24t-25 -10q-15 0 -26 10t-11 24q0 13 11.5 23t25.5 10q15 0 25.5 -9t10.5 -24z" />
    <glyph glyph-name="betdagesh" unicode="&#xfb31;" horiz-adv-x="793" 
d="M741 268v-268h-684v268h312v480q0 30 -33 30h-258v269h422q86 0 120 -34q39 -37 39 -132v-613h82zM213 521q0 -14 -11 -24t-25 -10q-15 0 -26 10t-11 24q0 13 11.5 23t25.5 10q15 0 25.5 -9t10.5 -24z" />
    <glyph glyph-name="gimeldagesh" unicode="&#xfb32;" horiz-adv-x="645" 
d="M569 193l15 -140q5 -53 -11 -53h-272q9 11 6 55l-14 215h-19q-106 -297 -223 -297v326q113 74 199 211q18 28 18 68v151q0 49 -47 49h-160v269h322q92 0 132 -40q44 -44 44 -149v-514q0 -67 10 -151zM173 601q0 -14 -11 -24t-25 -10q-15 0 -26 10t-11 24q0 13 11.5 23
t25.5 10q15 0 25.5 -9t10.5 -24z" />
    <glyph glyph-name="daletdagesh" unicode="&#xfb33;" horiz-adv-x="776" 
d="M715 1047v-269h-82v-778h-295v778h-297v269h674zM203 421q0 -14 -11 -24t-25 -10q-15 0 -26 10t-11 24q0 13 11.5 23t25.5 10q15 0 25.5 -9t10.5 -24z" />
    <glyph glyph-name="hedagesh" unicode="&#xfb34;" horiz-adv-x="911" 
d="M819 901v-901h-291v748q0 30 -32 30h-408v269h571q160 0 160 -146zM379 627v-627h-291v627h291zM491 381q0 -14 -11 -24t-25 -10q-15 0 -26 10t-11 24q0 13 11.5 23t25.5 10q15 0 25.5 -9t10.5 -24z" />
    <glyph glyph-name="vavdagesh" unicode="&#xfb35;" horiz-adv-x="475" 
d="M383 1047v-1047h-291v1047h291zM53 521q0 -14 -11 -24t-25 -10q-15 0 -26 10t-11 24q0 13 11.5 23t25.5 10q15 0 25.5 -9t10.5 -24z" />
    <glyph glyph-name="zayindagesh" unicode="&#xfb36;" horiz-adv-x="602" 
d="M535 1047v-269h-54q-49 0 -49 -82v-696h-291v608q0 136 82 170h-178v269h490zM103 411q0 -14 -11 -24t-25 -10q-15 0 -26 10t-11 24q0 13 11.5 23t25.5 10q15 0 25.5 -9t10.5 -24z" />
    <glyph glyph-name="tetdagesh" unicode="&#xfb38;" horiz-adv-x="961" 
d="M461 1047h432l-57 -750q-14 -173 -84 -243t-215 -70h-125q-150 0 -218 68q-69 69 -83 245l-60 750h297l55 -742q5 -53 58 -53h26q56 0 60 55l37 471h-123v269zM513 521q0 -14 -11 -24t-25 -10q-15 0 -26 10t-11 24q0 13 11.5 23t25.5 10q15 0 25.5 -9t10.5 -24z" />
    <glyph glyph-name="yoddagesh" unicode="&#xfb39;" horiz-adv-x="463" 
d="M377 1047v-621h-291v621h291zM63 731q0 -14 -11 -24t-25 -10q-15 0 -26 10t-11 24q0 13 11.5 23t25.5 10q15 0 25.5 -9t10.5 -24z" />
    <glyph glyph-name="finalkafdagesh" unicode="&#xfb3a;" horiz-adv-x="725" 
d="M633 901v-1159h-291v1006q0 30 -33 30h-264v269h428q160 0 160 -146zM213 541q0 -14 -11 -24t-25 -10q-15 0 -26 10t-11 24q0 13 11.5 23t25.5 10q15 0 25.5 -9t10.5 -24z" />
    <glyph glyph-name="kafdagesh" unicode="&#xfb3b;" horiz-adv-x="745" 
d="M664 754v-461q0 -159 -64 -226t-215 -67h-317v268h213q55 0 76.5 20.5t21.5 73.5v322q0 94 -98 94h-213v269h317q147 0 209 -60q70 -66 70 -233zM213 521q0 -14 -11 -24t-25 -10q-15 0 -26 10t-11 24q0 13 11.5 23t25.5 10q15 0 25.5 -9t10.5 -24z" />
    <glyph glyph-name="lameddagesh" unicode="&#xfb3c;" horiz-adv-x="754" 
d="M336 1047h350l-102 -756q-21 -152 -73 -216q-61 -75 -192 -75h-108v252h27q41 0 56 24q11 17 17 66l54 436h-320v537h291v-268zM213 531q0 -14 -11 -24t-25 -10q-15 0 -26 10t-11 24q0 13 11.5 23t25.5 10q15 0 25.5 -9t10.5 -24z" />
    <glyph glyph-name="memdagesh" unicode="&#xfb3e;" horiz-adv-x="1004" 
d="M911 854v-854h-411v268h121v463q0 69 -54 69h-35q-50 0 -61 -71l-109 -729h-294l84 549l-111 498h289l55 -232l14 70q18 87 59 125q50 45 150 45h111q192 0 192 -201zM573 521q0 -14 -11 -24t-25 -10q-15 0 -26 10t-11 24q0 13 11.5 23t25.5 10q15 0 25.5 -9t10.5 -24z
" />
    <glyph glyph-name="nundagesh" unicode="&#xfb40;" horiz-adv-x="582" 
d="M489 877v-877h-428v268h138v473q0 37 -33 37h-105v269h263q165 0 165 -170zM153 521q0 -14 -11 -24t-25 -10q-15 0 -26 10t-11 24q0 13 11.5 23t25.5 10q15 0 25.5 -9t10.5 -24z" />
    <glyph glyph-name="samekhdagesh" unicode="&#xfb41;" horiz-adv-x="963" 
d="M51 1047h844l-66 -750q-15 -174 -85 -245q-68 -68 -214 -68h-114q-150 0 -217 69q-67 68 -82 244zM545 311l35 467h-213l34 -467q5 -59 52 -59h41q46 0 51 59zM513 521q0 -14 -11 -24t-25 -10q-15 0 -26 10t-11 24q0 13 11.5 23t25.5 10q15 0 25.5 -9t10.5 -24z" />
    <glyph glyph-name="finalpedagesh" unicode="&#xfb43;" horiz-adv-x="905" 
d="M813 897v-1155h-291v1020q0 37 -33 37h-133v-164q0 -23 21 -23h49v-200h-219q-125 0 -125 149v486h586q145 0 145 -150zM475 703q0 -14 -11 -24t-25 -10q-15 0 -26 10t-11 24q0 13 11.5 23t25.5 10q15 0 25.5 -9t10.5 -24z" />
    <glyph glyph-name="pedagesh" unicode="&#xfb44;" horiz-adv-x="911" 
d="M819 897v-747q0 -150 -145 -150h-586v268h416q33 0 33 37v459q0 37 -33 37h-148v-170q0 -23 21 -23h45v-192h-209q-125 0 -125 149v482h586q145 0 145 -150zM494 348q0 -14 -11 -24t-25 -10q-15 0 -26 10t-11 24q0 13 11.5 23t25.5 10q15 0 25.5 -9t10.5 -24z" />
    <glyph glyph-name="tsadidagesh" unicode="&#xfb46;" horiz-adv-x="881" 
d="M809 1047v-295q0 -235 -234 -271l207 -440q9 -19 9 -29q0 -12 -46 -12h-677v268h311l-359 779h306l190 -439v439h293zM163 561q0 -14 -11 -24t-25 -10q-15 0 -26 10t-11 24q0 13 11.5 23t25.5 10q15 0 25.5 -9t10.5 -24z" />
    <glyph glyph-name="qofdagesh" unicode="&#xfb47;" horiz-adv-x="983" 
d="M82 1047h840l-117 -756q-23 -148 -84 -215q-67 -76 -201 -76h-67v252h4q67 0 78 90l51 436h-504v269zM383 639v-903h-291v903h291zM503 521q0 -14 -11 -24t-25 -10q-15 0 -26 10t-11 24q0 13 11.5 23t25.5 10q15 0 25.5 -9t10.5 -24z" />
    <glyph glyph-name="reshdagesh" unicode="&#xfb48;" horiz-adv-x="725" 
d="M633 901v-901h-291v748q0 30 -33 30h-264v269h428q160 0 160 -146zM213 391q0 -14 -11 -24t-25 -10q-15 0 -26 10t-11 24q0 13 11.5 23t25.5 10q15 0 25.5 -9t10.5 -24z" />
    <glyph glyph-name="shindagesh" unicode="&#xfb49;" horiz-adv-x="1204" 
d="M852 1047h281l-56 -736q-24 -325 -415 -325h-134q-391 0 -415 325l-56 736h281l34 -478h31q58 0 58 76v402h266v-383q0 -138 -57 -204q-64 -75 -211 -75h-72l2 -14q12 -71 49 -90q32 -17 129 -17h56q81 0 118 19q52 25 58 100zM809 669q0 -14 -11 -24t-25 -10
q-15 0 -26 10t-11 24q0 13 11.5 23t25.5 10q15 0 25.5 -9t10.5 -24z" />
    <glyph glyph-name="tavdagesh" unicode="&#xfb4a;" horiz-adv-x="967" 
d="M874 897v-897h-290v741q0 37 -33 37h-117v-612q0 -166 -164 -166h-225v270h76q33 0 33 33v475h-84v269h659q145 0 145 -150zM543 431q0 -14 -11 -24t-25 -10q-15 0 -26 10t-11 24q0 13 11.5 23t25.5 10q15 0 25.5 -9t10.5 -24z" />
    <glyph glyph-name="vavholam" unicode="&#xfb4b;" horiz-adv-x="475" 
d="M383 1047v-1047h-291v1047h291zM316 1230q0 -35 -25.5 -60.5t-60.5 -25.5q-34 0 -60 25.5t-26 60.5q0 33 26 58.5t60 25.5q39 0 62.5 -23.5t23.5 -60.5z" />
    <glyph glyph-name="NULL" horiz-adv-x="0" 
 />
    <glyph glyph-name="CR" horiz-adv-x="512" 
 />
    <glyph glyph-name="_180" horiz-adv-x="700" 
d="M609 712q0 -110 -77 -187q-76 -76 -187 -76q-108 0 -185 77t-77 186q0 110 77 187t185 77q110 0 187 -77t77 -187zM536 712q0 81 -56 137q-55 55 -135 55t-135 -55t-55 -137q0 -79 55 -135q56 -56 135 -56t135 56q56 58 56 135z" />
    <glyph glyph-name="_181" horiz-adv-x="700" 
d="M609 712q0 -110 -77 -187q-76 -76 -187 -76q-108 0 -185 77t-77 186q0 110 77 187t185 77q110 0 187 -77t77 -187zM536 712q0 81 -56 137q-55 55 -135 55t-135 -55t-55 -137q0 -79 55 -135q56 -56 135 -56t135 56q56 58 56 135z" />
    <glyph glyph-name="_182" horiz-adv-x="700" 
d="M609 712q0 -110 -77 -187q-76 -76 -187 -76q-108 0 -185 77t-77 186q0 110 77 187t185 77q110 0 187 -77t77 -187zM536 712q0 81 -56 137q-55 55 -135 55t-135 -55t-55 -137q0 -79 55 -135q56 -56 135 -56t135 56q56 58 56 135z" />
    <glyph glyph-name="_205" horiz-adv-x="700" 
d="M609 712q0 -110 -77 -187q-76 -76 -187 -76q-108 0 -185 77t-77 186q0 110 77 187t185 77q110 0 187 -77t77 -187zM536 712q0 81 -56 137q-55 55 -135 55t-135 -55t-55 -137q0 -79 55 -135q56 -56 135 -56t135 56q56 58 56 135z" />
    <glyph glyph-name="_206" 
d="M657 770q0 -119 -83 -202t-203 -83q-118 0 -200 84q-83 85 -83 201q0 118 83 203q82 84 200 84q121 0 203 -84q83 -85 83 -203zM578 770q0 88 -60 148q-58 61 -147 61q-86 0 -146 -61q-59 -61 -59 -148q0 -84 59 -146q60 -61 146 -61q89 0 147 61q60 62 60 146z" />
    <glyph glyph-name="_207" 
d="M657 770q0 -119 -83 -202t-203 -83q-118 0 -200 84q-83 85 -83 201q0 118 83 203q82 84 200 84q121 0 203 -84q83 -85 83 -203zM578 770q0 88 -60 148q-58 61 -147 61q-86 0 -146 -61q-59 -61 -59 -148q0 -84 59 -146q60 -61 146 -61q89 0 147 61q60 62 60 146z" />
    <glyph glyph-name="_208" 
d="M657 770q0 -119 -83 -202t-203 -83q-118 0 -200 84q-83 85 -83 201q0 118 83 203q82 84 200 84q121 0 203 -84q83 -85 83 -203zM578 770q0 88 -60 148q-58 61 -147 61q-86 0 -146 -61q-59 -61 -59 -148q0 -84 59 -146q60 -61 146 -61q89 0 147 61q60 62 60 146z" />
    <glyph glyph-name="qamatskatanmetegsheva" horiz-adv-x="0" 
d="M934 -299q0 -40 -26.5 -67t-67.5 -27q-39 0 -65.5 27.5t-26.5 66.5t26.5 64.5t65.5 25.5t66.5 -25.5t27.5 -64.5zM934 -600q0 -41 -26.5 -67.5t-67.5 -26.5q-39 0 -65.5 26.5t-26.5 67.5q0 37 27.5 64.5t64.5 27.5q41 0 67.5 -26.5t26.5 -65.5zM639 -227v-445h-94v445h94
zM418 -227v-119h-170l-6 -100q0 -23 29 -67q30 -43 30 -65q0 -40 -26.5 -67t-65.5 -27t-65.5 27.5t-26.5 66.5q0 25 30 67q31 41 31 67l-8 98h-170v119h418z" />
    <glyph glyph-name="_214" 
d="M657 770q0 -119 -83 -202t-203 -83q-118 0 -200 84q-83 85 -83 201q0 118 83 203q82 84 200 84q121 0 203 -84q83 -85 83 -203zM578 770q0 88 -60 148q-58 61 -147 61q-86 0 -146 -61q-59 -61 -59 -148q0 -84 59 -146q60 -61 146 -61q89 0 147 61q60 62 60 146z" />
    <glyph glyph-name="_215" 
d="M657 770q0 -119 -83 -202t-203 -83q-118 0 -200 84q-83 85 -83 201q0 118 83 203q82 84 200 84q121 0 203 -84q83 -85 83 -203zM578 770q0 88 -60 148q-58 61 -147 61q-86 0 -146 -61q-59 -61 -59 -148q0 -84 59 -146q60 -61 146 -61q89 0 147 61q60 62 60 146z" />
    <glyph glyph-name="_216" 
d="M657 770q0 -119 -83 -202t-203 -83q-118 0 -200 84q-83 85 -83 201q0 118 83 203q82 84 200 84q121 0 203 -84q83 -85 83 -203zM578 770q0 88 -60 148q-58 61 -147 61q-86 0 -146 -61q-59 -61 -59 -148q0 -84 59 -146q60 -61 146 -61q89 0 147 61q60 62 60 146z" />
    <glyph glyph-name="_217" 
d="M657 770q0 -119 -83 -202t-203 -83q-118 0 -200 84q-83 85 -83 201q0 118 83 203q82 84 200 84q121 0 203 -84q83 -85 83 -203zM578 770q0 88 -60 148q-58 61 -147 61q-86 0 -146 -61q-59 -61 -59 -148q0 -84 59 -146q60 -61 146 -61q89 0 147 61q60 62 60 146z" />
  </font>
</defs>
</svg>
